HIERARCHY
ROOT Hips
{
	OFFSET 14.690516 86.028580 13.074039
	CHANNELS 6 Xposition Yposition Zposition Zrotation Yrotation Xrotation 
	JOINT Spine
	{
		OFFSET -0.000000 8.814246 -2.080107
		CHANNELS 3 Zrotation Yrotation Xrotation
		JOINT Spine1
		{
			OFFSET -0.000000 8.844141 0.000000
			CHANNELS 3 Zrotation Yrotation Xrotation
			JOINT Spine2
			{
				OFFSET 0.000000 11.682268 0.000000
				CHANNELS 3 Zrotation Yrotation Xrotation
				JOINT Spine3
				{
					OFFSET 0.000000 11.746700 0.000000
					CHANNELS 3 Zrotation Yrotation Xrotation
					JOINT Neck
					{
						OFFSET -0.000000 17.658264 -0.000000
						CHANNELS 3 Zrotation Yrotation Xrotation
						JOINT Neck1
						{
							OFFSET 0.000000 5.101515 0.000000
							CHANNELS 3 Zrotation Yrotation Xrotation
							JOINT Head
							{
								OFFSET 0.000000 5.101515 0.000000
								CHANNELS 3 Zrotation Yrotation Xrotation
								JOINT HeadEnd
								{
									OFFSET 0.000000 11.655085 -0.000000
									CHANNELS 3 Zrotation Yrotation Xrotation
									End Site
									{
										OFFSET 0.000000 0.000000 0.000000
									}
								}
							}
						}
					}
					JOINT RightShoulder
					{
						OFFSET -2.625389 11.175210 -0.000000
						CHANNELS 3 Zrotation Yrotation Xrotation
						JOINT RightArm
						{
							OFFSET -0.000000 10.434715 -0.000000
							CHANNELS 3 Zrotation Yrotation Xrotation
							JOINT RightForeArm
							{
								OFFSET 0.000000 29.628420 0.000000
								CHANNELS 3 Zrotation Yrotation Xrotation
								JOINT RightHand
								{
									OFFSET -0.000000 22.857611 -0.000000
									CHANNELS 3 Zrotation Yrotation Xrotation
									JOINT RightHandThumb1
									{
										OFFSET -2.867323 3.959563 2.944291
										CHANNELS 3 Zrotation Yrotation Xrotation
										JOINT RightHandThumb2
										{
											OFFSET 0.000000 3.350399 0.000000
											CHANNELS 3 Zrotation Yrotation Xrotation
											JOINT RightHandThumb3
											{
												OFFSET 0.000000 3.756509 -0.000000
												CHANNELS 3 Zrotation Yrotation Xrotation
												JOINT RightHandThumb4
												{
													OFFSET 0.000000 3.147345 0.000000
													CHANNELS 3 Zrotation Yrotation Xrotation
													End Site
													{
														OFFSET 0.000000 0.000000 0.000000
													}
												}
											}
										}
									}
									JOINT RightHandIndex1
									{
										OFFSET -0.086752 10.030893 2.345280
										CHANNELS 3 Zrotation Yrotation Xrotation
										JOINT RightHandIndex2
										{
											OFFSET 0.000000 4.061090 0.000000
											CHANNELS 3 Zrotation Yrotation Xrotation
											JOINT RightHandIndex3
											{
												OFFSET 0.000000 3.248873 0.000000
												CHANNELS 3 Zrotation Yrotation Xrotation
												JOINT RightHandIndex4
												{
													OFFSET 0.000000 2.639709 0.000000
													CHANNELS 3 Zrotation Yrotation Xrotation
													End Site
													{
														OFFSET 0.000000 0.000000 0.000000
													}
												}
											}
										}
									}
									JOINT RightHandMiddle1
									{
										OFFSET 0.104102 9.502952 0.006768
										CHANNELS 3 Zrotation Yrotation Xrotation
										JOINT RightHandMiddle2
										{
											OFFSET 0.000000 4.568727 0.000000
											CHANNELS 3 Zrotation Yrotation Xrotation
											JOINT RightHandMiddle3
											{
												OFFSET -0.000000 3.654981 -0.000000
												CHANNELS 3 Zrotation Yrotation Xrotation
												JOINT RightHandMiddle4
												{
													OFFSET 0.000000 2.741236 0.000000
													CHANNELS 3 Zrotation Yrotation Xrotation
													End Site
													{
														OFFSET 0.000000 0.000000 0.000000
													}
												}
											}
										}
									}
									JOINT RightHandRing1
									{
										OFFSET 0.086752 8.921708 -2.267442
										CHANNELS 3 Zrotation Yrotation Xrotation
										JOINT RightHandRing2
										{
											OFFSET -0.000000 4.061090 0.000000
											CHANNELS 3 Zrotation Yrotation Xrotation
											JOINT RightHandRing3
											{
												OFFSET -0.000000 3.654981 -0.000000
												CHANNELS 3 Zrotation Yrotation Xrotation
												JOINT RightHandRing4
												{
													OFFSET 0.000000 2.741236 0.000000
													CHANNELS 3 Zrotation Yrotation Xrotation
													End Site
													{
														OFFSET 0.000000 0.000000 0.000000
													}
												}
											}
										}
									}
									JOINT RightHandPinky1
									{
										OFFSET -0.173504 7.976997 -4.467199
										CHANNELS 3 Zrotation Yrotation Xrotation
										JOINT RightHandPinky2
										{
											OFFSET 0.000000 3.350399 0.000000
											CHANNELS 3 Zrotation Yrotation Xrotation
											JOINT RightHandPinky3
											{
												OFFSET 0.000000 2.842763 0.000000
												CHANNELS 3 Zrotation Yrotation Xrotation
												JOINT RightHandPinky4
												{
													OFFSET 0.000000 2.639709 0.000000
													CHANNELS 3 Zrotation Yrotation Xrotation
													End Site
													{
														OFFSET 0.000000 0.000000 0.000000
													}
												}
											}
										}
									}
									JOINT RightForeArmEnd
									{
										OFFSET 0.000000 0.000000 0.000000
										CHANNELS 3 Zrotation Yrotation Xrotation
										End Site
										{
											OFFSET 0.000000 0.000000 0.000000
										}
									}
								}
								JOINT RightArmEnd
								{
									OFFSET 0.000000 0.000000 0.000000
									CHANNELS 3 Zrotation Yrotation Xrotation
									End Site
									{
										OFFSET 0.000000 0.000000 0.000000
									}
								}
							}
						}
					}
					JOINT LeftShoulder
					{
						OFFSET 2.625389 11.175210 -0.000000
						CHANNELS 3 Zrotation Yrotation Xrotation
						JOINT LeftArm
						{
							OFFSET 0.000000 10.813635 0.000000
							CHANNELS 3 Zrotation Yrotation Xrotation
							JOINT LeftForeArm
							{
								OFFSET 0.000000 28.724781 -0.000000
								CHANNELS 3 Zrotation Yrotation Xrotation
								JOINT LeftHand
								{
									OFFSET 0.644384 25.716167 -0.328871
									CHANNELS 3 Zrotation Yrotation Xrotation
									JOINT LeftHandThumb1
									{
										OFFSET 2.867323 3.959563 2.944291
										CHANNELS 3 Zrotation Yrotation Xrotation
										JOINT LeftHandThumb2
										{
											OFFSET -0.000000 3.350399 -0.000000
											CHANNELS 3 Zrotation Yrotation Xrotation
											JOINT LeftHandThumb3
											{
												OFFSET 0.000000 3.756509 -0.000000
												CHANNELS 3 Zrotation Yrotation Xrotation
												JOINT LeftHandThumb4
												{
													OFFSET 0.000000 3.100000 -0.000000
													CHANNELS 3 Zrotation Yrotation Xrotation
													End Site
													{
														OFFSET 0.000000 0.000000 0.000000
													}
												}
											}
										}
									}
									JOINT LeftHandIndex1
									{
										OFFSET 0.086752 10.030893 2.345280
										CHANNELS 3 Zrotation Yrotation Xrotation
										JOINT LeftHandIndex2
										{
											OFFSET -0.000000 4.061090 0.000000
											CHANNELS 3 Zrotation Yrotation Xrotation
											JOINT LeftHandIndex3
											{
												OFFSET -0.000000 3.248873 0.000000
												CHANNELS 3 Zrotation Yrotation Xrotation
												JOINT LeftHandIndex4
												{
													OFFSET 0.000000 2.639709 -0.000000
													CHANNELS 3 Zrotation Yrotation Xrotation
													End Site
													{
														OFFSET 0.000000 0.000000 0.000000
													}
												}
											}
										}
									}
									JOINT LeftHandMiddle1
									{
										OFFSET -0.104102 9.502952 0.006768
										CHANNELS 3 Zrotation Yrotation Xrotation
										JOINT LeftHandMiddle2
										{
											OFFSET -0.000000 4.568727 0.000000
											CHANNELS 3 Zrotation Yrotation Xrotation
											JOINT LeftHandMiddle3
											{
												OFFSET 0.000000 3.654981 -0.000000
												CHANNELS 3 Zrotation Yrotation Xrotation
												JOINT LeftHandMiddle4
												{
													OFFSET -0.000000 2.741236 0.000000
													CHANNELS 3 Zrotation Yrotation Xrotation
													End Site
													{
														OFFSET 0.000000 0.000000 0.000000
													}
												}
											}
										}
									}
									JOINT LeftHandRing1
									{
										OFFSET -0.086752 8.921708 -2.267442
										CHANNELS 3 Zrotation Yrotation Xrotation
										JOINT LeftHandRing2
										{
											OFFSET -0.000000 4.061090 0.000000
											CHANNELS 3 Zrotation Yrotation Xrotation
											JOINT LeftHandRing3
											{
												OFFSET 0.000000 3.654981 -0.000000
												CHANNELS 3 Zrotation Yrotation Xrotation
												JOINT LeftHandRing4
												{
													OFFSET 0.000000 2.741236 -0.000000
													CHANNELS 3 Zrotation Yrotation Xrotation
													End Site
													{
														OFFSET 0.000000 0.000000 0.000000
													}
												}
											}
										}
									}
									JOINT LeftHandPinky1
									{
										OFFSET 0.173504 7.976997 -4.467199
										CHANNELS 3 Zrotation Yrotation Xrotation
										JOINT LeftHandPinky2
										{
											OFFSET 0.000000 3.350399 0.000000
											CHANNELS 3 Zrotation Yrotation Xrotation
											JOINT LeftHandPinky3
											{
												OFFSET -0.000000 2.842763 0.000000
												CHANNELS 3 Zrotation Yrotation Xrotation
												JOINT LeftHandPinky4
												{
													OFFSET 0.000000 2.639709 -0.000000
													CHANNELS 3 Zrotation Yrotation Xrotation
													End Site
													{
														OFFSET 0.000000 0.000000 0.000000
													}
												}
											}
										}
									}
									JOINT LeftForeArmEnd
									{
										OFFSET 0.000000 0.000000 0.000000
										CHANNELS 3 Zrotation Yrotation Xrotation
										End Site
										{
											OFFSET 0.000000 0.000000 0.000000
										}
									}
								}
								JOINT LeftArmEnd
								{
									OFFSET 0.000000 0.000000 0.000000
									CHANNELS 3 Zrotation Yrotation Xrotation
									End Site
									{
										OFFSET 0.000000 0.000000 0.000000
									}
								}
							}
						}
					}
				}
			}
		}
	}
	JOINT RightUpLeg
	{
		OFFSET -11.289943 0.000000 -0.000000
		CHANNELS 3 Zrotation Yrotation Xrotation
		JOINT RightLeg
		{
			OFFSET 0.000000 -38.200325 0.000000
			CHANNELS 3 Zrotation Yrotation Xrotation
			JOINT RightFoot
			{
				OFFSET -0.000000 -39.900856 0.000000
				CHANNELS 3 Zrotation Yrotation Xrotation
				JOINT RightToeBase
				{
					OFFSET -0.000000 -0.000000 15.261641
					CHANNELS 3 Zrotation Yrotation Xrotation
					JOINT RightToeBaseEnd
					{
						OFFSET -0.000000 0.000000 7.370709
						CHANNELS 3 Zrotation Yrotation Xrotation
						End Site
						{
							OFFSET 0.000000 0.000000 0.000000
						}
					}
				}
				JOINT RightLegEnd
				{
					OFFSET 0.000000 0.000000 0.000000
					CHANNELS 3 Zrotation Yrotation Xrotation
					End Site
					{
						OFFSET 0.000000 0.000000 0.000000
					}
				}
			}
			JOINT RightUpLegEnd
			{
				OFFSET 0.000000 0.000000 0.000000
				CHANNELS 3 Zrotation Yrotation Xrotation
				End Site
				{
					OFFSET 0.000000 0.000000 0.000000
				}
			}
		}
	}
	JOINT LeftUpLeg
	{
		OFFSET 11.315661 0.000000 -0.000000
		CHANNELS 3 Zrotation Yrotation Xrotation
		JOINT LeftLeg
		{
			OFFSET -0.000000 -38.200325 0.000000
			CHANNELS 3 Zrotation Yrotation Xrotation
			JOINT LeftFoot
			{
				OFFSET 0.000000 -39.900856 0.000000
				CHANNELS 3 Zrotation Yrotation Xrotation
				JOINT LeftToeBase
				{
					OFFSET -0.000000 -0.000000 15.261641
					CHANNELS 3 Zrotation Yrotation Xrotation
					JOINT LeftToeBaseEnd
					{
						OFFSET 0.000000 -0.000000 7.539996
						CHANNELS 3 Zrotation Yrotation Xrotation
						End Site
						{
							OFFSET 0.000000 0.000000 0.000000
						}
					}
				}
				JOINT LeftLegEnd
				{
					OFFSET 0.000000 0.000000 0.000000
					CHANNELS 3 Zrotation Yrotation Xrotation
					End Site
					{
						OFFSET 0.000000 0.000000 0.000000
					}
				}
			}
			JOINT LeftUpLegEnd
			{
				OFFSET 0.000000 0.000000 0.000000
				CHANNELS 3 Zrotation Yrotation Xrotation
				End Site
				{
					OFFSET 0.000000 0.000000 0.000000
				}
			}
		}
	}
}
MOTION
Frames: 5
Frame Time: 0.016667
14.690516 86.028580 13.074039 1.211648 -1.116546 -16.834574 -0.499247 0.245357 6.565364 -3.414496 0.241103 5.447172 6.187163 -7.103482 15.224212 -2.066253 -2.244388 1.544347 16.917658 -26.520744 6.452725 -6.440684 -27.244505 -8.402365 7.678418 4.535309 -21.103479 0.000000 -0.000000 -0.000000 97.714226 -0.359811 2.091245 57.498020 -13.370156 8.613296 -0.389398 27.842073 57.977325 110.395432 82.763168 110.507767 11.536112 -1.910869 39.476410 0.000000 -0.000000 -28.080000 -0.000000 -0.000000 -19.500000 0.000000 0.000000 -0.000000 19.846025 -0.000000 -0.642755 13.892218 0.000000 -0.000000 13.892218 -0.000000 -0.000000 -0.000000 0.000000 -0.000000 21.302176 -0.000000 -2.941525 14.911522 -0.000000 0.000000 14.911522 -0.000000 -0.000000 0.000000 -0.000000 0.000000 24.721661 -0.000000 -5.078808 17.305162 -0.000000 0.000000 17.305162 -0.000000 0.000000 -0.000000 0.000000 -0.000000 26.652462 -0.000000 -8.803590 18.656723 -0.000000 -0.000000 18.656723 -0.000000 -0.000000 0.000000 -0.000000 -0.000000 0.000000 -0.000000 -0.000000 0.000000 -0.000000 0.000000 -88.003937 -0.159260 3.985861 -67.399086 27.012667 -10.594916 -4.850528 -22.959679 63.397961 -1.349243 -11.085665 -6.696045 -10.338415 1.814722 40.003895 -0.000000 -0.000000 -25.200001 -0.000000 -0.000000 -17.500000 0.000000 0.000000 0.000000 -18.485069 -0.000000 -13.672385 -12.939548 0.000000 -0.000000 -12.939548 0.000000 0.000000 0.000000 0.000000 -0.000000 -19.242678 0.000000 -14.015852 -13.469874 0.000000 -0.000000 -13.469874 0.000000 0.000000 0.000000 0.000000 -0.000000 -21.387234 0.000000 -12.770385 -14.971065 0.000000 0.000000 -14.971065 0.000000 -0.000000 -0.000000 -0.000000 -0.000000 -22.050102 0.000000 -12.178385 -15.435072 -0.000000 -0.000000 -15.435072 0.000000 0.000000 -0.000000 0.000000 0.000000 -0.000000 0.000000 -0.000000 0.000000 0.000000 0.000000 -7.191508 9.297946 2.551773 -0.415862 -1.010458 22.583515 2.618665 -8.371763 18.315220 -0.779261 -1.132470 -30.113321 0.000000 0.000000 0.000000 -0.000000 0.000000 -0.000000 0.000000 -0.000000 0.000000 3.079643 10.231683 15.644984 0.332196 0.890027 20.468704 -0.601859 16.918135 9.334308 0.074745 0.542024 -28.582521 0.000000 -0.000000 -0.000000 -0.000000 -0.000000 0.000000 0.000000 0.000000 0.000000 
14.039229 86.048813 13.224381 0.741153 -0.817931 -16.643658 -0.317723 0.218766 6.525915 -3.161833 0.155385 5.522744 6.481213 -7.262055 14.941420 -2.017818 -2.257757 1.577053 16.766996 -26.404322 6.395576 -6.456723 -27.151049 -8.441679 7.631337 4.534113 -21.149063 0.000000 -0.000000 -0.000000 97.656723 -0.358484 2.095389 57.620495 -13.477641 8.619888 2.384859 29.265165 59.382259 85.107147 83.361107 85.070404 11.536112 -1.910869 39.476410 0.000000 -0.000000 -28.080000 0.000000 -0.000000 -19.500000 0.000000 0.000000 -0.000000 19.797579 0.000000 -0.675321 13.858305 -0.000000 -0.000000 13.858305 0.000000 -0.000000 -0.000000 -0.000000 0.000000 21.268993 0.000000 -2.969022 14.888295 -0.000000 0.000000 14.888295 0.000000 0.000000 0.000000 -0.000000 -0.000000 24.720596 0.000000 -5.109291 17.304417 -0.000000 0.000000 17.304417 0.000000 0.000000 -0.000000 0.000000 -0.000000 26.682344 0.000000 -8.850589 18.677641 -0.000000 -0.000000 18.677641 -0.000000 0.000000 0.000000 0.000000 -0.000000 0.000000 -0.000000 -0.000000 -0.000000 0.000000 0.000000 -87.991119 -0.160819 4.006069 -67.637360 27.688793 -10.639303 -4.627234 -22.235403 62.939953 -1.760010 -11.492400 -6.742676 -10.039283 1.787270 40.137466 -0.000000 0.000000 -24.480000 -0.000000 -0.000000 -17.000000 -0.000000 0.000000 0.000000 -18.417665 0.000000 -13.606670 -12.892365 0.000000 0.000000 -12.892365 -0.000000 -0.000000 0.000000 0.000000 0.000000 -19.247713 0.000000 -13.964797 -13.473399 -0.000000 0.000000 -13.473399 -0.000000 -0.000000 -0.000000 -0.000000 -0.000000 -21.552620 0.000000 -12.721734 -15.086835 -0.000000 -0.000000 -15.086835 -0.000000 0.000000 -0.000000 0.000000 -0.000000 -22.367842 0.000000 -12.139942 -15.657490 -0.000000 0.000000 -15.657490 0.000000 -0.000000 -0.000000 0.000000 0.000000 -0.000000 -0.000000 -0.000000 0.000000 -0.000000 -0.000000 -6.234223 9.160075 2.620644 -0.414605 -1.003164 22.577393 2.229191 -8.931682 18.235989 -0.772125 -1.115815 -30.150854 0.000000 -0.000000 0.000000 -0.000000 -0.000000 -0.000000 0.000000 -0.000000 0.000000 3.956508 9.808580 15.218839 0.351157 0.912489 21.049648 -1.132691 16.602798 9.101545 0.109247 0.547928 -28.656469 0.000000 -0.000000 -0.000000 -0.000000 -0.000000 0.000000 -0.000000 0.000000 -0.000000 
13.394229 86.064651 13.368635 0.290095 -0.554441 -16.445454 -0.156854 0.195396 6.494682 -2.883539 0.053211 5.589952 6.755192 -7.409376 14.663159 -1.975913 -2.276047 1.580326 16.607428 -26.246937 6.362053 -6.484359 -27.034000 -8.479839 7.573305 4.532843 -21.195341 0.000000 -0.000000 -0.000000 97.594070 -0.359791 2.121065 57.744804 -13.597811 8.660914 2.390429 29.217403 59.426979 84.196198 83.489723 84.166290 11.536112 -1.910869 39.476410 0.000000 -0.000000 -28.080000 -0.000000 0.000000 -19.500000 -0.000000 0.000000 -0.000000 19.650692 -0.000000 -0.780579 13.755485 0.000000 0.000000 13.755485 -0.000000 -0.000000 -0.000000 0.000000 -0.000000 21.157839 0.000000 -3.039408 14.810487 -0.000000 -0.000000 14.810487 0.000000 -0.000000 0.000000 -0.000000 0.000000 24.685184 0.000000 -5.139520 17.279629 -0.000000 0.000000 17.279629 0.000000 -0.000000 0.000000 -0.000000 -0.000000 26.717432 0.000000 -8.864071 18.702202 -0.000000 0.000000 18.702202 0.000000 -0.000000 0.000000 -0.000000 -0.000000 0.000000 -0.000000 -0.000000 -0.000000 -0.000000 0.000000 -87.982063 -0.161973 4.022627 -67.919830 28.250240 -10.752521 -4.468593 -21.748056 62.458931 -2.239136 -11.662825 -6.840454 -10.338415 1.814722 40.003895 0.000000 -0.000000 -25.200001 0.000000 0.000000 -17.500000 0.000000 -0.000000 -0.000000 -18.618319 -0.000000 -13.531583 -13.032823 0.000000 0.000000 -13.032823 0.000000 -0.000000 0.000000 0.000000 -0.000000 -19.391041 -0.000000 -13.964375 -13.573729 -0.000000 -0.000000 -13.573729 -0.000000 -0.000000 -0.000000 0.000000 0.000000 -21.575991 -0.000000 -12.841865 -15.103194 -0.000000 0.000000 -15.103194 0.000000 -0.000000 -0.000000 0.000000 0.000000 -22.281046 -0.000000 -12.349394 -15.596732 -0.000000 0.000000 -15.596732 0.000000 0.000000 0.000000 0.000000 -0.000000 -0.000000 0.000000 -0.000000 0.000000 0.000000 0.000000 -5.314310 8.986837 2.655255 -0.411868 -0.991410 22.561172 1.827429 -9.409405 18.173689 -0.763492 -1.098933 -30.170589 0.000000 -0.000000 0.000000 -0.000000 -0.000000 -0.000000 0.000000 0.000000 0.000000 4.833057 9.452190 14.810344 0.367764 0.930540 21.565903 -1.642325 16.262115 8.901931 0.138168 0.556488 -28.765343 -0.000000 -0.000000 -0.000000 0.000000 -0.000000 0.000000 -0.000000 0.000000 -0.000000 
12.758362 86.080254 13.510324 -0.133046 -0.312880 -16.261827 0.006836 0.171963 6.468843 -2.604530 -0.047116 5.656576 6.991515 -7.526924 14.409379 -1.947701 -2.289647 1.580997 16.470549 -26.069660 6.349570 -6.515220 -26.898697 -8.512293 7.507275 4.531542 -21.262686 0.000000 0.000000 -0.000000 97.549545 -0.362209 2.150601 57.857471 -13.769951 8.724858 2.405351 29.260118 59.465302 83.438171 83.649582 83.379333 11.536112 -1.910869 39.476410 0.000000 0.000000 -28.080000 -0.000000 0.000000 -19.500000 0.000000 -0.000000 -0.000000 19.659113 0.000000 -0.884045 13.761379 -0.000000 0.000000 13.761379 0.000000 -0.000000 0.000000 -0.000000 -0.000000 21.168051 0.000000 -3.107882 14.817636 -0.000000 0.000000 14.817636 0.000000 -0.000000 -0.000000 -0.000000 -0.000000 24.704182 0.000000 -5.167609 17.292927 0.000000 0.000000 17.292927 -0.000000 0.000000 -0.000000 0.000000 0.000000 26.742687 -0.000000 -8.862798 18.719881 0.000000 -0.000000 18.719881 -0.000000 0.000000 0.000000 -0.000000 0.000000 0.000000 0.000000 -0.000000 -0.000000 0.000000 0.000000 -87.967186 -0.164591 4.069100 -68.195015 28.627588 -10.885199 -4.331916 -21.325090 61.951813 -2.565063 -11.774286 -7.048218 -10.338415 1.814722 40.003895 0.000000 0.000000 -25.200001 -0.000000 0.000000 -17.500000 0.000000 0.000000 -0.000000 -19.030176 -0.000000 -13.527831 -13.321123 -0.000000 -0.000000 -13.321123 0.000000 0.000000 -0.000000 0.000000 0.000000 -19.750069 0.000000 -13.954799 -13.825048 -0.000000 -0.000000 -13.825048 0.000000 0.000000 0.000000 -0.000000 -0.000000 -21.833784 -0.000000 -12.809734 -15.283649 0.000000 -0.000000 -15.283649 -0.000000 0.000000 -0.000000 0.000000 0.000000 -22.430763 -0.000000 -12.284300 -15.701534 0.000000 -0.000000 -15.701534 -0.000000 -0.000000 0.000000 0.000000 -0.000000 -0.000000 0.000000 -0.000000 0.000000 0.000000 0.000000 -4.440396 8.772632 2.696857 -0.405448 -0.978468 22.514721 1.413524 -9.805530 18.127632 -0.753134 -1.081081 -30.175682 0.000000 -0.000000 0.000000 -0.000000 0.000000 -0.000000 0.000000 -0.000000 0.000000 5.681157 9.118402 14.458252 0.382043 0.946491 21.982258 -2.131030 15.936318 8.754431 0.165679 0.566750 -28.891291 0.000000 -0.000000 -0.000000 -0.000000 -0.000000 0.000000 -0.000000 0.000000 -0.000000 
12.133945 86.098328 13.651577 -0.539347 -0.091397 -16.111561 0.203571 0.139232 6.455403 -2.367622 -0.129724 5.714313 7.213867 -7.610474 14.208398 -1.917893 -2.292096 1.580947 16.341312 -25.884022 6.334489 -6.539427 -26.755898 -8.546951 7.437651 4.530278 -21.345114 0.000000 0.000000 -0.000000 97.502304 -0.363746 2.174882 57.965069 -13.923491 8.810444 2.423117 29.336483 59.490768 82.515533 83.773376 82.392303 11.536112 -1.910869 39.476410 -0.000000 -0.000000 -28.080000 -0.000000 0.000000 -19.500000 -0.000000 -0.000000 -0.000000 19.782143 -0.000000 -0.928217 13.847500 0.000000 0.000000 13.847500 -0.000000 0.000000 -0.000000 0.000000 -0.000000 21.262825 -0.000000 -3.127447 14.883978 -0.000000 -0.000000 14.883978 0.000000 -0.000000 0.000000 -0.000000 0.000000 24.743608 -0.000000 -5.159621 17.320526 -0.000000 -0.000000 17.320526 0.000000 -0.000000 0.000000 0.000000 0.000000 26.727470 -0.000000 -8.827517 18.709230 0.000000 0.000000 18.709230 0.000000 -0.000000 0.000000 0.000000 0.000000 0.000000 -0.000000 -0.000000 -0.000000 0.000000 0.000000 -87.971504 -0.166562 4.136094 -68.381142 28.922071 -10.981522 -4.205528 -20.913565 61.436031 -2.726074 -12.043913 -7.341797 -10.338415 1.814722 40.003895 -0.000000 -0.000000 -25.200001 -0.000000 -0.000000 -17.500000 -0.000000 -0.000000 -0.000000 -19.120489 -0.000000 -13.566161 -13.384343 -0.000000 0.000000 -13.384343 0.000000 0.000000 -0.000000 0.000000 -0.000000 -19.866129 -0.000000 -13.975614 -13.906290 -0.000000 0.000000 -13.906290 0.000000 -0.000000 0.000000 0.000000 -0.000000 -22.015825 -0.000000 -12.769161 -15.411078 -0.000000 0.000000 -15.411078 -0.000000 -0.000000 0.000000 0.000000 -0.000000 -22.671780 -0.000000 -12.183903 -15.870246 0.000000 -0.000000 -15.870246 0.000000 0.000000 0.000000 -0.000000 0.000000 -0.000000 0.000000 0.000000 0.000000 0.000000 0.000000 -3.609480 8.475962 2.789999 -0.397758 -0.965325 22.395285 0.977035 -10.084098 18.113237 -0.739594 -1.063216 -30.180250 0.000000 -0.000000 0.000000 -0.000000 0.000000 -0.000000 0.000000 -0.000000 0.000000 6.529804 8.835469 14.184243 0.393580 0.959582 22.302759 -2.591595 15.589193 8.657616 0.190631 0.577517 -29.031183 0.000000 -0.000000 -0.000000 -0.000000 -0.000000 0.000000 -0.000000 0.000000 -0.000000 
